<?xml version="1.0" encoding="UTF-8" standalone="no"?>
<!-- Created with Inkscape (http://www.inkscape.org/) -->

<svg
   xmlns:dc="http://purl.org/dc/elements/1.1/"
   xmlns:cc="http://creativecommons.org/ns#"
   xmlns:rdf="http://www.w3.org/1999/02/22-rdf-syntax-ns#"
   xmlns:svg="http://www.w3.org/2000/svg"
   xmlns="http://www.w3.org/2000/svg"
   xmlns:sodipodi="http://sodipodi.sourceforge.net/DTD/sodipodi-0.dtd"
   xmlns:inkscape="http://www.inkscape.org/namespaces/inkscape"
   width="166.15071mm"
   height="20.73134mm"
   viewBox="0 0 588.72299 73.457504"
   id="svg3546"
   version="1.1"
   inkscape:version="0.91 r13725"
   sodipodi:docname="dessin2.svg">
  <defs
     id="defs3548" />
  <sodipodi:namedview
     id="base"
     pagecolor="#ffffff"
     bordercolor="#666666"
     borderopacity="1.0"
     inkscape:pageopacity="0.0"
     inkscape:pageshadow="2"
     inkscape:zoom="0.98994949"
     inkscape:cx="710.09549"
     inkscape:cy="-104.99487"
     inkscape:document-units="px"
     inkscape:current-layer="layer1"
     showgrid="false"
     fit-margin-top="0"
     fit-margin-left="0.3"
     fit-margin-right="0"
     fit-margin-bottom="0"
     inkscape:window-width="1920"
     inkscape:window-height="1018"
     inkscape:window-x="1272"
     inkscape:window-y="-8"
     inkscape:window-maximized="1" />
  <metadata
     id="metadata3551">
    <rdf:RDF>
      <cc:Work
         rdf:about="">
        <dc:format>image/svg+xml</dc:format>
        <dc:type
           rdf:resource="http://purl.org/dc/dcmitype/StillImage" />
        <dc:title></dc:title>
      </cc:Work>
    </rdf:RDF>
  </metadata>
  <g
     inkscape:label="Calque 1"
     inkscape:groupmode="layer"
     id="layer1"
     transform="translate(-40.213849,-170.38937)">
    <g
       transform="matrix(4.7391937,0,0,4.7391937,-1605.593,-1323.8784)"
       id="g3129">
      <path
         class="st3"
         d="m 349.1,317 c 0.3,-0.7 0.8,-1.1 1.5,-1.4 0.3,-0.1 0.6,-0.2 0.9,-0.2 0.4,0 0.7,0.1 1.1,0.3 l -0.3,0.7 -0.1,0.2 c -0.4,-0.2 -0.8,-0.2 -1.3,-0.1 -0.4,0.2 -0.7,0.4 -0.9,0.8 -0.2,0.4 -0.2,0.8 -0.1,1.2 0.1,0.4 0.4,0.7 0.8,0.9 l 1.1,0.5 0.4,0.1 c 0.5,0.2 0.9,0.5 1.3,0.8 0.4,0.3 0.7,0.7 1,1.1 0.5,0.8 0.8,1.6 0.9,2.6 0,0.2 0,0.3 0,0.5 0,0.8 -0.2,1.5 -0.5,2.3 -0.4,0.9 -1,1.6 -1.8,2.2 -0.8,0.6 -1.6,0.9 -2.5,1 -0.2,0 -0.4,0 -0.7,0 -0.3,0 -0.6,0 -0.9,-0.1 -0.5,-0.1 -1,-0.2 -1.5,-0.5 l 0.3,-0.7 0.1,-0.2 c 1.1,0.5 2.3,0.6 3.4,0.1 1.2,-0.4 2,-1.2 2.5,-2.3 0.5,-1.1 0.6,-2.2 0.1,-3.4 -0.5,-1.2 -1.2,-2 -2.3,-2.5 l -1.1,-0.5 -0.4,-0.1 c -0.7,-0.3 -1.1,-0.8 -1.4,-1.5 0.1,-0.4 0.1,-1.1 0.4,-1.8 z"
         id="path3131"
         inkscape:connector-curvature="0"
         style="fill:#e94f1c" />
      <path
         class="st3"
         d="m 371.1,316.5 c -0.9,0 -2.6,0 -5.2,0 0,2.4 0,7.2 0,14.3 -0.2,0 -0.6,0 -1.1,0 0,-3.2 0,-8 0,-14.3 -1.2,0 -2.9,0 -5.2,0 0,-0.2 0,-0.6 0,-1 1.2,0 2.9,0 5.2,0 0.2,0 0.6,0 1.1,0 1.2,0 2.9,0 5.2,0 0,0.2 0,0.5 0,1 z"
         id="path3133"
         inkscape:connector-curvature="0"
         style="fill:#e94f1c" />
      <path
         class="st3"
         d="m 386.7,320.9 c 0,0.5 -0.1,1 -0.2,1.5 -0.1,0.5 -0.3,1 -0.6,1.4 -0.5,0.8 -1.1,1.4 -2,1.9 -0.8,0.5 -1.7,0.7 -2.7,0.7 -0.1,0 -0.1,0 -0.2,0 0.4,1 1.1,2.4 1.9,4.3 -0.3,0 -0.6,0 -1.2,0 -0.4,-1 -1.1,-2.4 -1.9,-4.3 -0.8,0 -2,0 -3.5,0 0,1 0,2.4 0,4.3 -0.2,0 -0.6,0 -1,0 0,-1.3 0,-3.2 0,-5.8 0,-2.1 0,-5.3 0,-9.6 0.6,0 1,0 1.1,0 0.1,0 0.4,0 1,0 0.2,0 0.3,0 0.5,0 0.2,0 0.4,0 0.7,0 0.3,0 0.7,0 1.2,0 0.5,0 1,0 1.6,0 0.5,0 1,0.1 1.5,0.2 0.5,0.2 1,0.4 1.4,0.6 0.8,0.5 1.4,1.1 1.9,2 0.3,0.9 0.5,1.9 0.5,2.8 z m -10.5,4.5 c 0.5,0 0.8,0 0.9,0 0.1,0 0.3,0 0.8,0 0.1,0 0.2,0 0.4,0 0.2,0 0.4,0 0.6,0 0.3,0 0.6,0 0.9,0 0.3,0 0.8,0 1.3,0 1.2,0 2.3,-0.4 3.2,-1.3 0.9,-0.9 1.3,-1.9 1.3,-3.2 0,-1.2 -0.4,-2.3 -1.3,-3.2 -0.9,-0.9 -1.9,-1.3 -3.2,-1.3 -1.1,0 -2.8,0 -5,0 0,0.5 0,1 0,1.5 0,0.5 0,0.9 0,1.4 0,0.8 0,1.7 0,2.7 0.1,1 0.1,2.1 0.1,3.4 z"
         id="path3135"
         inkscape:connector-curvature="0"
         style="fill:#e94f1c" />
      <path
         class="st3"
         d="m 396.6,315.4 c 1.3,3.4 3.2,8.5 5.8,15.4 -0.2,0 -0.6,0 -1,0 -0.3,-0.7 -0.7,-1.8 -1.2,-3.3 -1.6,0 -3.9,0 -7,0 -0.3,0.7 -0.7,1.8 -1.2,3.3 -0.2,0 -0.6,0 -1,0 1.2,-3.1 2.9,-7.8 5.2,-14 0,-0.1 0.1,-0.3 0.2,-0.5 -0.1,-0.1 0,-0.5 0.2,-0.9 z m -3.1,11.1 c 1.4,0 3.4,0 6.2,0 -0.7,-1.8 -1.7,-4.6 -3.1,-8.2 -0.7,1.7 -1.7,4.5 -3.1,8.2 z"
         id="path3137"
         inkscape:connector-curvature="0"
         style="fill:#e94f1c" />
      <path
         class="st3"
         d="m 412.2,328 c 0.8,-2.1 2.4,-6.3 4.7,-12.6 0.2,0 0.5,0 1,0 -1.3,3.4 -3.2,8.5 -5.8,15.4 -1.3,-3.4 -3.2,-8.5 -5.8,-15.4 0.2,0 0.6,0 1,0 1.3,2.8 2.8,7 4.9,12.6 z"
         id="path3139"
         inkscape:connector-curvature="0"
         style="fill:#e94f1c" />
      <path
         class="st3"
         d="m 423.1,315.4 c 0,2.6 0,7.7 0,15.4 l -0.5,0 -0.5,0 c 0,-3.4 0,-8.5 0,-15.4 0.2,0 0.6,0 1,0 z"
         id="path3141"
         inkscape:connector-curvature="0"
         style="fill:#e94f1c" />
      <path
         class="st3"
         d="m 428.7,317 c 0.3,-0.7 0.8,-1.1 1.5,-1.4 0.3,-0.1 0.6,-0.2 0.9,-0.2 0.4,0 0.7,0.1 1.1,0.3 l -0.3,0.7 -0.1,0.2 c -0.4,-0.2 -0.8,-0.2 -1.3,-0.1 -0.4,0.2 -0.7,0.4 -0.9,0.8 -0.2,0.4 -0.2,0.8 -0.1,1.2 0.1,0.4 0.4,0.7 0.8,0.9 l 1.1,0.5 0.4,0.1 c 0.5,0.2 0.9,0.5 1.3,0.8 0.4,0.3 0.7,0.7 1,1.1 0.5,0.8 0.8,1.6 0.9,2.6 0,0.2 0,0.3 0,0.5 0,0.8 -0.2,1.5 -0.5,2.3 -0.4,0.9 -1,1.6 -1.8,2.2 -0.8,0.6 -1.6,0.9 -2.5,1 -0.2,0 -0.4,0 -0.7,0 -0.3,0 -0.6,0 -0.9,-0.1 -0.5,-0.1 -1,-0.2 -1.5,-0.5 l 0.3,-0.7 0.1,-0.2 c 1.1,0.5 2.3,0.6 3.4,0.1 1.2,-0.4 2,-1.2 2.5,-2.3 0.5,-1.1 0.6,-2.2 0.1,-3.4 -0.5,-1.2 -1.2,-2 -2.3,-2.5 l -1.1,-0.5 -0.4,-0.1 c -0.7,-0.3 -1.1,-0.8 -1.4,-1.5 0.1,-0.4 0.1,-1.1 0.4,-1.8 z"
         id="path3143"
         inkscape:connector-curvature="0"
         style="fill:#e94f1c" />
      <path
         class="st3"
         d="m 450.7,316.5 c -0.9,0 -2.6,0 -5.2,0 0,2.4 0,7.2 0,14.3 -0.2,0 -0.6,0 -1.1,0 0,-3.2 0,-8 0,-14.3 -1.2,0 -2.9,0 -5.2,0 0,-0.2 0,-0.6 0,-1 1.2,0 2.9,0 5.2,0 0.2,0 0.6,0 1.1,0 1.2,0 2.9,0 5.2,0 0,0.2 0,0.5 0,1 z"
         id="path3145"
         inkscape:connector-curvature="0"
         style="fill:#e94f1c" />
      <path
         class="st3"
         d="m 455.9,315.4 c 0,2.6 0,7.7 0,15.4 l -0.5,0 -0.5,0 c 0,-3.4 0,-8.5 0,-15.4 0.1,0 0.5,0 1,0 z"
         id="path3147"
         inkscape:connector-curvature="0"
         style="fill:#e94f1c" />
      <path
         class="st3"
         d="m 471.5,330.8 c -0.3,0 -0.7,0 -1.3,0 -1,-1.5 -2.5,-3.7 -4.5,-6.7 -1,1.5 -2.5,3.7 -4.5,6.7 -0.3,0 -0.7,0 -1.3,0 1.1,-1.7 2.8,-4.3 5.1,-7.7 -1.1,-1.7 -2.8,-4.3 -5.1,-7.7 0.3,0 0.7,0 1.3,0 1,1.5 2.5,3.8 4.5,6.7 1,-1.5 2.5,-3.8 4.5,-6.7 0.3,0 0.7,0 1.3,0 -1.1,1.7 -2.8,4.3 -5.1,7.7 1.1,1.7 2.8,4.3 5.1,7.7 z"
         id="path3149"
         inkscape:connector-curvature="0"
         style="fill:#e94f1c" />
    </g>
  </g>
</svg>
