<?xml version="1.0" encoding="UTF-8" standalone="no"?>
<!-- Generator: Adobe Illustrator 19.1.1, SVG Export Plug-In . SVG Version: 6.00 Build 0)  -->

<svg
   xmlns:dc="http://purl.org/dc/elements/1.1/"
   xmlns:cc="http://creativecommons.org/ns#"
   xmlns:rdf="http://www.w3.org/1999/02/22-rdf-syntax-ns#"
   xmlns:svg="http://www.w3.org/2000/svg"
   xmlns="http://www.w3.org/2000/svg"
   xmlns:sodipodi="http://sodipodi.sourceforge.net/DTD/sodipodi-0.dtd"
   xmlns:inkscape="http://www.inkscape.org/namespaces/inkscape"
   version="1.1"
   id="Calque_1"
   x="0px"
   y="0px"
   viewBox="0 0 128.15552 95.236336"
   xml:space="preserve"
   inkscape:version="0.48.4 r9939"
   width="100%"
   height="100%"
   sodipodi:docname="logo_stravistix_no_circle.svg"><metadata
     id="metadata3199"><rdf:RDF><cc:Work
         rdf:about=""><dc:format>image/svg+xml</dc:format><dc:type
           rdf:resource="http://purl.org/dc/dcmitype/StillImage" /><dc:title /></cc:Work></rdf:RDF></metadata><defs
     id="defs3197" /><sodipodi:namedview
     pagecolor="#e94f1c"
     bordercolor="#666666"
     borderopacity="1"
     objecttolerance="10"
     gridtolerance="10"
     guidetolerance="10"
     inkscape:pageopacity="0"
     inkscape:pageshadow="2"
     inkscape:window-width="1920"
     inkscape:window-height="1029"
     id="namedview3195"
     showgrid="false"
     inkscape:zoom="3.433563"
     inkscape:cx="140.27555"
     inkscape:cy="6.6785647"
     inkscape:window-x="0"
     inkscape:window-y="0"
     inkscape:window-maximized="1"
     inkscape:current-layer="g3117"
     fit-margin-top="0"
     fit-margin-left="0.3"
     fit-margin-right="0"
     fit-margin-bottom="0"
     showborder="true"
     borderlayer="false" /><style
     type="text/css"
     id="style3113">
	.st0{fill:none;stroke:#E94E1B;stroke-width:5;stroke-linecap:round;stroke-miterlimit:10;}
	.st1{fill:#E94F1C;}
	.st2{fill:none;stroke:#e94f1c;stroke-miterlimit:10;}
	.st3{fill:#e94f1c;}
	.st4{fill:none;stroke:#e94f1c;stroke-width:0.54;stroke-miterlimit:10;}
</style><path
     class="st0"
     d="M -232.49211,57.840249"
     id="path3115"
     inkscape:connector-curvature="0"
     style="fill:none;stroke:#e94e1b;stroke-width:5;stroke-linecap:round;stroke-miterlimit:10" /><g
     id="g3117"
     transform="translate(-345.39211,-238.85975)"><circle
       class="st1"
       cx="409.60001"
       cy="296.70001"
       r="80.5"
       id="circle3119"
       sodipodi:cx="409.60001"
       sodipodi:cy="296.70001"
       sodipodi:rx="80.5"
       sodipodi:ry="80.5"
       style="fill:#e94f1c;fill-opacity:0"
       d="m 490.10001,296.70001 c 0,44.45892 -36.04108,80.5 -80.5,80.5 -44.45893,0 -80.5,-36.04108 -80.5,-80.5 0,-44.45892 36.04107,-80.5 80.5,-80.5 44.45892,0 80.5,36.04108 80.5,80.5 z" /><g
       id="g3121"><polygon
         class="st2"
         points="349.2,311 379.6,258.5 409.9,311 "
         id="polygon3123"
         style="fill:none;stroke:#e94f1c;stroke-miterlimit:10" /><polygon
         class="st2"
         points="379.6,311 409.9,243.5 440.2,311 "
         id="polygon3125"
         style="fill:none;stroke:#e94f1c;stroke-miterlimit:10" /><polygon
         class="st2"
         points="409.9,311 440.2,258.5 470.6,311 "
         id="polygon3127"
         style="fill:none;stroke:#e94f1c;stroke-miterlimit:10" /></g><g
       id="g3129"><path
         class="st3"
         d="m 349.1,317 c 0.3,-0.7 0.8,-1.1 1.5,-1.4 0.3,-0.1 0.6,-0.2 0.9,-0.2 0.4,0 0.7,0.1 1.1,0.3 l -0.3,0.7 -0.1,0.2 c -0.4,-0.2 -0.8,-0.2 -1.3,-0.1 -0.4,0.2 -0.7,0.4 -0.9,0.8 -0.2,0.4 -0.2,0.8 -0.1,1.2 0.1,0.4 0.4,0.7 0.8,0.9 l 1.1,0.5 0.4,0.1 c 0.5,0.2 0.9,0.5 1.3,0.8 0.4,0.3 0.7,0.7 1,1.1 0.5,0.8 0.8,1.6 0.9,2.6 0,0.2 0,0.3 0,0.5 0,0.8 -0.2,1.5 -0.5,2.3 -0.4,0.9 -1,1.6 -1.8,2.2 -0.8,0.6 -1.6,0.9 -2.5,1 -0.2,0 -0.4,0 -0.7,0 -0.3,0 -0.6,0 -0.9,-0.1 -0.5,-0.1 -1,-0.2 -1.5,-0.5 l 0.3,-0.7 0.1,-0.2 c 1.1,0.5 2.3,0.6 3.4,0.1 1.2,-0.4 2,-1.2 2.5,-2.3 0.5,-1.1 0.6,-2.2 0.1,-3.4 -0.5,-1.2 -1.2,-2 -2.3,-2.5 l -1.1,-0.5 -0.4,-0.1 c -0.7,-0.3 -1.1,-0.8 -1.4,-1.5 0.1,-0.4 0.1,-1.1 0.4,-1.8 z"
         id="path3131"
         inkscape:connector-curvature="0"
         style="fill:#e94f1c" /><path
         class="st3"
         d="m 371.1,316.5 c -0.9,0 -2.6,0 -5.2,0 0,2.4 0,7.2 0,14.3 -0.2,0 -0.6,0 -1.1,0 0,-3.2 0,-8 0,-14.3 -1.2,0 -2.9,0 -5.2,0 0,-0.2 0,-0.6 0,-1 1.2,0 2.9,0 5.2,0 0.2,0 0.6,0 1.1,0 1.2,0 2.9,0 5.2,0 0,0.2 0,0.5 0,1 z"
         id="path3133"
         inkscape:connector-curvature="0"
         style="fill:#e94f1c" /><path
         class="st3"
         d="m 386.7,320.9 c 0,0.5 -0.1,1 -0.2,1.5 -0.1,0.5 -0.3,1 -0.6,1.4 -0.5,0.8 -1.1,1.4 -2,1.9 -0.8,0.5 -1.7,0.7 -2.7,0.7 -0.1,0 -0.1,0 -0.2,0 0.4,1 1.1,2.4 1.9,4.3 -0.3,0 -0.6,0 -1.2,0 -0.4,-1 -1.1,-2.4 -1.9,-4.3 -0.8,0 -2,0 -3.5,0 0,1 0,2.4 0,4.3 -0.2,0 -0.6,0 -1,0 0,-1.3 0,-3.2 0,-5.8 0,-2.1 0,-5.3 0,-9.6 0.6,0 1,0 1.1,0 0.1,0 0.4,0 1,0 0.2,0 0.3,0 0.5,0 0.2,0 0.4,0 0.7,0 0.3,0 0.7,0 1.2,0 0.5,0 1,0 1.6,0 0.5,0 1,0.1 1.5,0.2 0.5,0.2 1,0.4 1.4,0.6 0.8,0.5 1.4,1.1 1.9,2 0.3,0.9 0.5,1.9 0.5,2.8 z m -10.5,4.5 c 0.5,0 0.8,0 0.9,0 0.1,0 0.3,0 0.8,0 0.1,0 0.2,0 0.4,0 0.2,0 0.4,0 0.6,0 0.3,0 0.6,0 0.9,0 0.3,0 0.8,0 1.3,0 1.2,0 2.3,-0.4 3.2,-1.3 0.9,-0.9 1.3,-1.9 1.3,-3.2 0,-1.2 -0.4,-2.3 -1.3,-3.2 -0.9,-0.9 -1.9,-1.3 -3.2,-1.3 -1.1,0 -2.8,0 -5,0 0,0.5 0,1 0,1.5 0,0.5 0,0.9 0,1.4 0,0.8 0,1.7 0,2.7 0.1,1 0.1,2.1 0.1,3.4 z"
         id="path3135"
         inkscape:connector-curvature="0"
         style="fill:#e94f1c" /><path
         class="st3"
         d="m 396.6,315.4 c 1.3,3.4 3.2,8.5 5.8,15.4 -0.2,0 -0.6,0 -1,0 -0.3,-0.7 -0.7,-1.8 -1.2,-3.3 -1.6,0 -3.9,0 -7,0 -0.3,0.7 -0.7,1.8 -1.2,3.3 -0.2,0 -0.6,0 -1,0 1.2,-3.1 2.9,-7.8 5.2,-14 0,-0.1 0.1,-0.3 0.2,-0.5 -0.1,-0.1 0,-0.5 0.2,-0.9 z m -3.1,11.1 c 1.4,0 3.4,0 6.2,0 -0.7,-1.8 -1.7,-4.6 -3.1,-8.2 -0.7,1.7 -1.7,4.5 -3.1,8.2 z"
         id="path3137"
         inkscape:connector-curvature="0"
         style="fill:#e94f1c" /><path
         class="st3"
         d="m 412.2,328 c 0.8,-2.1 2.4,-6.3 4.7,-12.6 0.2,0 0.5,0 1,0 -1.3,3.4 -3.2,8.5 -5.8,15.4 -1.3,-3.4 -3.2,-8.5 -5.8,-15.4 0.2,0 0.6,0 1,0 1.3,2.8 2.8,7 4.9,12.6 z"
         id="path3139"
         inkscape:connector-curvature="0"
         style="fill:#e94f1c" /><path
         class="st3"
         d="m 423.1,315.4 c 0,2.6 0,7.7 0,15.4 h -0.5 -0.5 c 0,-3.4 0,-8.5 0,-15.4 0.2,0 0.6,0 1,0 z"
         id="path3141"
         inkscape:connector-curvature="0"
         style="fill:#e94f1c" /><path
         class="st3"
         d="m 428.7,317 c 0.3,-0.7 0.8,-1.1 1.5,-1.4 0.3,-0.1 0.6,-0.2 0.9,-0.2 0.4,0 0.7,0.1 1.1,0.3 l -0.3,0.7 -0.1,0.2 c -0.4,-0.2 -0.8,-0.2 -1.3,-0.1 -0.4,0.2 -0.7,0.4 -0.9,0.8 -0.2,0.4 -0.2,0.8 -0.1,1.2 0.1,0.4 0.4,0.7 0.8,0.9 l 1.1,0.5 0.4,0.1 c 0.5,0.2 0.9,0.5 1.3,0.8 0.4,0.3 0.7,0.7 1,1.1 0.5,0.8 0.8,1.6 0.9,2.6 0,0.2 0,0.3 0,0.5 0,0.8 -0.2,1.5 -0.5,2.3 -0.4,0.9 -1,1.6 -1.8,2.2 -0.8,0.6 -1.6,0.9 -2.5,1 -0.2,0 -0.4,0 -0.7,0 -0.3,0 -0.6,0 -0.9,-0.1 -0.5,-0.1 -1,-0.2 -1.5,-0.5 l 0.3,-0.7 0.1,-0.2 c 1.1,0.5 2.3,0.6 3.4,0.1 1.2,-0.4 2,-1.2 2.5,-2.3 0.5,-1.1 0.6,-2.2 0.1,-3.4 -0.5,-1.2 -1.2,-2 -2.3,-2.5 l -1.1,-0.5 -0.4,-0.1 c -0.7,-0.3 -1.1,-0.8 -1.4,-1.5 0.1,-0.4 0.1,-1.1 0.4,-1.8 z"
         id="path3143"
         inkscape:connector-curvature="0"
         style="fill:#e94f1c" /><path
         class="st3"
         d="m 450.7,316.5 c -0.9,0 -2.6,0 -5.2,0 0,2.4 0,7.2 0,14.3 -0.2,0 -0.6,0 -1.1,0 0,-3.2 0,-8 0,-14.3 -1.2,0 -2.9,0 -5.2,0 0,-0.2 0,-0.6 0,-1 1.2,0 2.9,0 5.2,0 0.2,0 0.6,0 1.1,0 1.2,0 2.9,0 5.2,0 0,0.2 0,0.5 0,1 z"
         id="path3145"
         inkscape:connector-curvature="0"
         style="fill:#e94f1c" /><path
         class="st3"
         d="m 455.9,315.4 c 0,2.6 0,7.7 0,15.4 h -0.5 -0.5 c 0,-3.4 0,-8.5 0,-15.4 0.1,0 0.5,0 1,0 z"
         id="path3147"
         inkscape:connector-curvature="0"
         style="fill:#e94f1c" /><path
         class="st3"
         d="m 471.5,330.8 c -0.3,0 -0.7,0 -1.3,0 -1,-1.5 -2.5,-3.7 -4.5,-6.7 -1,1.5 -2.5,3.7 -4.5,6.7 -0.3,0 -0.7,0 -1.3,0 1.1,-1.7 2.8,-4.3 5.1,-7.7 -1.1,-1.7 -2.8,-4.3 -5.1,-7.7 0.3,0 0.7,0 1.3,0 1,1.5 2.5,3.8 4.5,6.7 1,-1.5 2.5,-3.8 4.5,-6.7 0.3,0 0.7,0 1.3,0 -1.1,1.7 -2.8,4.3 -5.1,7.7 1.1,1.7 2.8,4.3 5.1,7.7 z"
         id="path3149"
         inkscape:connector-curvature="0"
         style="fill:#e94f1c" /></g><rect
       style="fill:none;stroke:none"
       id="rect3032"
       width="127.85552"
       height="95.236336"
       x="16.892075"
       y="22.659739"
       transform="translate(328.80003,216.20001)" /></g><g
     id="g3183"
     transform="translate(-345.39211,-238.85975)" /><g
     id="g3185"
     transform="translate(-345.39211,-238.85975)" /><g
     id="g3187"
     transform="translate(-345.39211,-238.85975)" /><g
     id="g3189"
     transform="translate(-345.39211,-238.85975)" /><g
     id="g3191"
     transform="translate(-345.39211,-238.85975)" /><g
     id="g3193"
     transform="translate(-345.39211,-238.85975)" /></svg>