<?xml version="1.0" encoding="utf-8"?>
<!-- Generator: Adobe Illustrator 16.0.0, SVG Export Plug-In . SVG Version: 6.00 Build 0)  -->
<!DOCTYPE svg PUBLIC "-//W3C//DTD SVG 1.1//EN" "http://www.w3.org/Graphics/SVG/1.1/DTD/svg11.dtd">
<svg version="1.1" id="Layer_1" xmlns="http://www.w3.org/2000/svg" xmlns:xlink="http://www.w3.org/1999/xlink" x="0px" y="0px"
	 width="24" height="24" viewBox="0 0 512 512" enable-background="new 0 0 512 512" xml:space="preserve">
<text transform="matrix(1 0 0 1 168.7834 543.8093)"><tspan x="0" y="0" fill="#FFFF00" font-family="'Verdana-Bold'" font-size="20">simpleicon.com</tspan><tspan x="-159.59" y="24" fill="#FFFF00" font-family="'Verdana'" font-size="20">Collection Of Flat Icon, Symbols And Glyph Icons</tspan></text>
<g id="_x23_020201ff">
	<path fill="#020201" d="M307.875,126.404c8.923-6.734,19.259-11.948,30.478-13.262c-1.549,6.708-7.915,10.219-13.461,13.271
		c8.374-2.476,16.54-6.131,25.363-6.735c2.359-0.081,5.718,0.018,6.555,2.755c1.261,3.413-2.188,6.06-4.808,7.482
		c-9.634,4.97-20.762,5.699-30.559,10.291c20.132-1.891,40.229,5.916,55.499,18.8c18.224,15,30.271,36.717,34.664,59.812
		c16.107,4.322,33.521,1.189,48.638-5.231c-7.599,17.215-26.957,25.075-44.641,26.606c14.694,5.546,30.865,6.491,46.396,4.843
		c-12.316,13.642-31.369,18.954-49.276,18.539c-7.447,30.433-25.157,57.732-48.134,78.773
		c-44.713,40.481-106.641,59.883-166.479,56.03C140.587,394.867,83.98,366.514,50,319.469c2.971,1.738,5.465,4.133,8.301,6.061
		c26.309,19.034,61.333,25.083,92.612,16.584c18.98-4.897,36.212-15.514,49.979-29.379c-8.805,0.595-18.583-0.973-24.967-7.608
		c-3.979-3.79-5.618-10.029-3.223-15.107c2.89-6.411,9.328-10.057,15.415-12.93c-19.961,2.854-41.714-6.446-50.916-24.904
		c6.743-8.041,17.521-10.624,27.534-11.407c-11.651-3.395-23.617-7.554-32.45-16.252c-7.023-6.582-11.588-15.711-12.957-25.219
		c8.248-1.54,16.531-3.413,24.985-3.061c-19.168-9.977-36.69-28.974-35.159-51.942c36.348,13.262,72.111,28.379,106.261,46.639
		c11.949,6.564,21.88,16.063,31.649,25.436c9.462-24.571,19.618-49.241,35.006-70.796c8.247-11.336,17.98-21.888,29.938-29.361
		C311.539,119.939,309.631,123.181,307.875,126.404z"/>
</g>
</svg>
