<?xml version="1.0" encoding="UTF-8" standalone="no"?>
<svg
   xmlns:dc="http://purl.org/dc/elements/1.1/"
   xmlns:cc="http://creativecommons.org/ns#"
   xmlns:rdf="http://www.w3.org/1999/02/22-rdf-syntax-ns#"
   xmlns="http://www.w3.org/2000/svg"
   height="100%"
   width="100%"
   xml:space="preserve"
   viewBox="0 0 140 91.7"
   y="0px"
   x="0px"
   id="layer_01"
   version="1.1"><metadata
     id="metadata3199"><rdf:RDF><cc:Work
         rdf:about=""><dc:format>image/svg+xml</dc:format><dc:type
           rdf:resource="http://purl.org/dc/dcmitype/StillImage" /><dc:title></dc:title></cc:Work></rdf:RDF></metadata><defs
     id="defs3197"><clipPath
       id="clipPath4750"
       clipPathUnits="userSpaceOnUse"><g
         id="use4752"
         transform="matrix(0.79230303,0,0,0.79230303,2.5842564,17.418514)" /></clipPath><clipPath
       id="clipPath894"
       clipPathUnits="userSpaceOnUse"><rect
         y="21"
         x="15"
         height="95"
         width="130"
         id="rect896"
         style="opacity:1;fill:#ff71ff;fill-opacity:0.44973545;stroke:#900000;stroke-width:1.11266279;stroke-miterlimit:4;stroke-dasharray:none;stroke-opacity:1" /></clipPath></defs><style
     id="style3113"
     type="text/css">
	.st0{fill:none;stroke:#E94E1B;stroke-width:5;stroke-linecap:round;stroke-miterlimit:10;}
	.st1{fill:#E94F1C;}
	.st2{fill:none;stroke:#FFFFFF;stroke-miterlimit:10;}
	.st3{fill:#FFFFFF;}
	.st4{fill:none;stroke:#FFFFFF;stroke-width:0.54;stroke-miterlimit:10;}
</style><path
     style="fill:none;stroke:#e94e1b;stroke-width:5;stroke-linecap:round;stroke-miterlimit:10"
     id="path3115"
     d="M -215.90003,80.499988"
     class="st0" /><g
     id="g79"><g
       id="g907"
       transform="matrix(0.99118504,0,0,1,-10.341316,-16.100471)"><g
         aria-label="ELEVATE"
         style="fill:#ffffff;fill-opacity:1;stroke:none;stroke-opacity:1"
         id="text855"><path
           d="m 18.762711,95.463437 h 3.571614 v 0.351237 h -3.139974 v 2.424805 h 3.008789 v 0.342773 h -3.008789 v 2.856448 h 3.216146 v 0.34277 h -3.647786 z"
           style="fill:#ffffff;fill-opacity:1;stroke:none;stroke-opacity:1"
           id="path52" /><path
           d="m 39.161317,95.463437 h 0.423177 v 5.971033 h 3.076498 v 0.347 h -3.499675 z"
           style="fill:#ffffff;fill-opacity:1;stroke:none;stroke-opacity:1"
           id="path54" /><path
           d="m 58.891304,95.463437 h 3.571615 v 0.351237 h -3.139974 v 2.424805 h 3.008789 v 0.342773 h -3.008789 v 2.856448 h 3.216146 v 0.34277 h -3.647787 z"
           style="fill:#ffffff;fill-opacity:1;stroke:none;stroke-opacity:1"
           id="path56" /><path
           d="m 80.906447,101.78147 -2.412109,-6.318033 h 0.482422 l 2.217448,5.894853 2.234375,-5.894853 h 0.444336 l -2.407878,6.318033 z"
           style="fill:#ffffff;fill-opacity:1;stroke:none;stroke-opacity:1"
           id="path58" /><path
           d="m 101.44893,95.890846 -1.35417,3.554688 h 2.68718 z m -0.27083,-0.427409 h 0.55436 l 2.41634,6.318033 h -0.48242 l -0.75326,-1.984699 h -2.94954 l -0.749024,1.984699 h -0.448567 z"
           style="fill:#ffffff;fill-opacity:1;stroke:none;stroke-opacity:1"
           id="path60" /><path
           d="m 118.85568,95.463437 h 4.91309 v 0.347005 h -2.24284 v 5.971028 h -0.42741 v -5.971028 h -2.24284 z"
           style="fill:#ffffff;fill-opacity:1;stroke:none;stroke-opacity:1"
           id="path62" /><path
           d="m 139.92714,95.463437 h 3.57161 v 0.351237 h -3.13997 v 2.424805 h 3.00879 v 0.342773 h -3.00879 v 2.856448 h 3.21615 v 0.34277 h -3.64779 z"
           style="fill:#ffffff;fill-opacity:1;stroke:none;stroke-opacity:1"
           id="path64" /></g></g><polygon
       class="st2"
       points="379.6,258.5 409.9,311 349.2,311 "
       id="polygon3123"
       style="fill:none;stroke:#ffffff;stroke-miterlimit:10;stroke-opacity:1"
       transform="translate(-339.9,-237.9)" /><polygon
       class="st2"
       points="409.9,243.5 440.2,311 379.6,311 "
       id="polygon3125"
       style="fill:none;stroke:#ffffff;stroke-miterlimit:10;stroke-opacity:1"
       transform="translate(-339.9,-237.9)" /><polygon
       class="st2"
       points="440.2,258.5 470.6,311 409.9,311 "
       id="polygon3127"
       style="fill:none;stroke:#ffffff;stroke-miterlimit:10;stroke-opacity:1"
       transform="translate(-339.9,-237.9)" /></g><g
     transform="translate(-328.80003,-216.20001)"
     id="g3183" /><g
     transform="translate(-328.80003,-216.20001)"
     id="g3185" /><g
     transform="translate(-328.80003,-216.20001)"
     id="g3187" /><g
     transform="translate(-328.80003,-216.20001)"
     id="g3189" /><g
     transform="translate(-328.80003,-216.20001)"
     id="g3191" /><g
     transform="translate(-328.80003,-216.20001)"
     id="g3193" /></svg>
