<?xml version="1.0" encoding="utf-8"?>
<!-- Generator: Adobe Illustrator 18.1.0, SVG Export Plug-In . SVG Version: 6.00 Build 0)  -->
<!DOCTYPE svg PUBLIC "-//W3C//DTD SVG 1.1//EN" "http://www.w3.org/Graphics/SVG/1.1/DTD/svg11.dtd">
<svg version="1.1" id="Layer_1" xmlns="http://www.w3.org/2000/svg"  x="0px" y="0px"
	 width="376.689px" height="80px" viewBox="0 0 376.689 80" enable-background="new 0 0 376.689 80" xml:space="preserve">
<g>
	<path fill-rule="evenodd" clip-rule="evenodd" fill="#FFFFFF" d="M168.922,38.164H157.82V24.547h9.636
		c4.303,0,9.582,1.119,9.42,6.475C176.724,35.837,173.796,38.164,168.922,38.164L168.922,38.164z M198.878,68.748l-12.15-17.596
		c2.36-1.249,3.196-1.596,5.399-3.399c4.65-3.809,7.056-7.936,8.073-13.922c1.508-8.878-1.267-17.032-8.184-22.738
		c-5.117-4.221-13.731-6.234-20.789-6.234h-36.869v70.385h23.462v-20.11c5.893,0,4.661-0.55,6.536,2.263l11.172,16.898
		c0.389,0.649,0.394,0.95,1.355,0.95h40.849l15.921-30.165l15.501,30.165h22.238L233.648,0.459L198.878,68.748L198.878,68.748z
		 M35.922,50.503c2.565,0.513,9.211,1.796,7.421,5.36c-2.087,4.154-17.187,0.757-21.614-1.222c-5.713-2.756-5.692-2.754-8.66-4.956
		L0.5,64.768C12.898,73.07,20.719,76.437,36.555,76.36c15.315-0.075,29.874-5.768,30.885-21.328
		c1.399-21.542-18.014-21.933-33.115-26.065c-2.384-0.652-6.661-1.408-5.909-4.718c0.58-2.542,6.318-2.109,8.547-1.882
		c5.867,0.6,12.829,3.31,17.374,6.579l11.521-15.711C55.364,5.988,46.254,3.144,33.488,3.484C18.977,3.869,5.362,9.685,4.335,26.193
		C3.23,43.963,22.298,47.778,35.922,50.503L35.922,50.503z M66.067,24.757h20.739v50.485h23.671V24.757h20.739V4.856H66.067V24.757
		L66.067,24.757z M286.022,79.431l37.916-74.575h-22.624l-15.083,29.956L270.939,4.856h-22.624L286.022,79.431L286.022,79.431z
		 M359.131,14.912h1.466l0.419-7.541l2.514,7.332h0.623h0.005h0.623l2.514-7.332l0.419,7.541h1.466l-0.628-9.427h-2.095
		l-2.302,7.114l-2.302-7.114h-2.095L359.131,14.912L359.131,14.912z M351.589,6.742h2.933v8.17h1.466v-8.17h2.933V5.485h-7.332
		V6.742L351.589,6.742z M338.601,0.562l37.916,74.575h-22.624l-15.083-29.956l-15.292,29.956h-22.624L338.601,0.562L338.601,0.562z"
		/>
</g>
</svg>
