<svg width="121" height="33" viewBox="0 0 121 33" xmlns="http://www.w3.org/2000/svg">
<path d="M51.232 15.36L57.448 7.2H53.632L47.872 14.616V7.2H44.56V24H47.872V16.128L53.872 24H57.688L51.232 15.36ZM70.7275 22.512C71.9515 21.288 72.5755 19.776 72.5755 18C72.5755 16.224 71.9515 14.736 70.7275 13.512C69.5035 12.288 67.9915 11.664 66.2155 11.664C64.4395 11.664 62.9275 12.288 61.7035 13.512C60.4795 14.736 59.8795 16.224 59.8795 18C59.8795 19.776 60.4795 21.288 61.7035 22.512C62.9275 23.736 64.4395 24.336 66.2155 24.336C67.9915 24.336 69.5035 23.736 70.7275 22.512ZM63.8875 20.376C63.2875 19.752 62.9755 18.96 62.9755 18C62.9755 17.04 63.2875 16.248 63.8875 15.624C64.5115 15 65.2795 14.688 66.2155 14.688C67.1515 14.688 67.9195 15 68.5435 15.624C69.1675 16.248 69.4795 17.04 69.4795 18C69.4795 18.96 69.1675 19.752 68.5435 20.376C67.9195 21 67.1515 21.312 66.2155 21.312C65.2795 21.312 64.5115 21 63.8875 20.376ZM81.8447 20.064L78.7247 12H75.3407L80.2607 23.616C79.6847 25.248 78.7727 25.944 77.1167 25.92V28.8C80.1887 28.968 82.2047 27.456 83.4527 24L87.8207 12H84.5087L81.8447 20.064ZM102.889 19.272C102.961 18.816 103.009 18.408 103.009 18C103.009 16.2 102.433 14.712 101.281 13.488C100.153 12.264 98.6894 11.664 96.9374 11.664C95.0894 11.664 93.5534 12.264 92.3774 13.488C91.2014 14.688 90.6014 16.2 90.6014 18C90.6014 19.824 91.2014 21.336 92.4014 22.536C93.6014 23.736 95.1854 24.336 97.1774 24.336C99.4814 24.336 101.233 23.472 102.409 21.768L99.9134 20.328C99.3134 21.12 98.4014 21.528 97.2254 21.528C95.3774 21.528 94.2494 20.784 93.8414 19.272H102.889ZM93.7934 16.872C94.1534 15.336 95.2814 14.448 96.9374 14.448C98.3534 14.448 99.5534 15.24 99.9134 16.872H93.7934ZM114.555 11.664C112.875 11.664 111.579 12.24 110.667 13.416V7.2H107.571V24H110.667V22.584C111.579 23.76 112.875 24.336 114.555 24.336C116.163 24.336 117.555 23.736 118.683 22.512C119.835 21.288 120.411 19.776 120.411 18C120.411 16.224 119.835 14.736 118.683 13.512C117.555 12.288 116.163 11.664 114.555 11.664ZM111.603 20.448C110.979 19.8 110.667 18.984 110.667 18C110.667 17.016 110.979 16.2 111.603 15.576C112.227 14.928 113.019 14.616 113.979 14.616C114.939 14.616 115.731 14.928 116.355 15.576C117.003 16.2 117.315 17.016 117.315 18C117.315 18.984 117.003 19.8 116.355 20.448C115.731 21.072 114.939 21.384 113.979 21.384C113.019 21.384 112.227 21.072 111.603 20.448Z"/>
<path d="M17.1447 8.77773L33.3102 18.0856V10.3183L17.1344 1L1 10.3286V18.1063L17.1447 8.77773Z"/>
<path d="M30.7245 27.446L33.3102 25.9253V21.1572L17.1344 11.8286L1 21.1572V25.946L3.58567 27.446L17.1344 19.6063L30.7245 27.446Z"/>
<path d="M17.1448 30.6315L21.2504 33L27.9942 29.1211L17.1345 22.8538L6.31616 29.1211L13.0591 33L17.1448 30.6315Z"/>
</svg>
